Coordinates
version=1
nRows=13
nColumns=40
inDegrees=yes

Units are S.I. units (second, meters, Newtons, ...)
Angles are in degrees.

endheader
time	pelvis_tilt	pelvis_list	pelvis_rotation	pelvis_tx	pelvis_ty	pelvis_tz	hip_flexion_r	hip_adduction_r	hip_rotation_r	knee_angle_r	knee_angle_r_beta	ankle_angle_r	subtalar_angle_r	mtp_angle_r	hip_flexion_l	hip_adduction_l	hip_rotation_l	knee_angle_l	knee_angle_l_beta	ankle_angle_l	subtalar_angle_l	mtp_angle_l	lumbar_extension	lumbar_bending	lumbar_rotation	arm_flex_r	arm_add_r	arm_rot_r	elbow_flex_r	pro_sup_r	wrist_flex_r	wrist_dev_r	arm_flex_l	arm_add_l	arm_rot_l	elbow_flex_l	pro_sup_l	wrist_flex_l	wrist_dev_l
      0.51000000	     -1.06999874	     10.06319986	     -7.26378605	     -0.28270615	      0.93812740	      1.00664071	     -8.50480705	    -23.71200227	    -21.22130692	    -33.96936484	     -0.59287726	     -4.42464254	      8.68737303	    -11.64262206	     21.37348188	     -5.60753127	     18.59441689	    -17.76331056	     -0.31002826	     -5.97960563	      8.01041930	      2.19431739	      1.69406865	    -13.08046136	      9.93666071	      7.10644636	    -13.00706638	    -14.39048313	     34.21092313	     89.95437384	      0.00000000	      0.00000000	    -14.82215067	      9.94568627	      8.67734028	      7.04686714	     89.95437384	      0.00000000	      0.00000000
      0.52000000	     -1.05683897	     10.48401706	     -6.94213578	     -0.27203519	      0.93916703	      1.00266187	     -7.61927143	    -24.70248782	    -20.68812569	    -35.98091918	     -0.62798551	     -7.32152992	      7.68040870	    -10.78522451	     20.85454572	     -6.56009805	     18.11387858	    -18.04144387	     -0.31488260	     -5.03923394	      7.98228694	      1.95616299	      1.74066911	    -13.44376538	      9.44388411	      6.57064767	    -12.81706159	    -14.12031058	     33.53483211	     89.95437384	      0.00000000	      0.00000000	    -13.63667286	      9.84691413	      8.10107212	      7.06130486	     89.95437384	      0.00000000	      0.00000000
      0.53000000	     -1.24499276	     11.09053943	     -6.66665358	     -0.26219245	      0.93999408	      0.99867163	     -6.13383099	    -25.74655977	    -19.52692081	    -38.32613990	     -0.66891733	     -9.91438214	      5.72314042	     -9.72972011	     20.35004084	     -7.88617369	     17.02594273	    -17.67697919	     -0.30852149	     -4.55019532	      9.58576014	      2.20267361	      1.95932834	    -13.98372590	      9.03856379	      6.03144594	    -12.63176231	    -13.85087151	     32.89635083	     89.95437384	      0.00000000	      0.00000000	    -12.46895569	      9.82727256	      7.05267185	      7.42156629	     89.95437384	      0.00000000	      0.00000000
      0.54000000	     -1.12371238	     11.25229419	     -6.33409681	     -0.25248129	      0.94137363	      0.99528486	     -5.16547711	    -26.16585460	    -18.38855487	    -40.45363267	     -0.70604908	    -11.38797376	      5.03269206	     -9.25886783	     19.48096911	     -8.54157222	     16.67486946	    -17.53421129	     -0.30602972	     -3.77076542	      9.20571640	      2.07740108	      1.71307282	    -14.10985596	      8.37893654	      5.72700180	    -12.47645511	    -13.35585590	     32.02427474	     89.95437384	      0.00000000	      0.00000000	    -11.11711959	      9.74522523	      6.58117423	      7.60786352	     89.95437384	      0.00000000	      0.00000000
      0.55000000	     -1.35533456	     11.79801778	     -6.18824450	     -0.24329489	      0.94214888	      0.99191924	     -3.28723284	    -26.98727756	    -16.80624395	    -43.05624112	     -0.75147317	    -12.44177862	      3.15787634	     -8.81062102	     18.87692435	     -9.60838691	     16.28929226	    -16.85256197	     -0.29413269	     -3.53777109	      9.82607763	      2.38113809	      1.92469082	    -14.57973270	      7.96389959	      5.30741373	    -12.33370233	    -12.66822412	     31.34895169	     89.95437384	      0.00000000	      0.00000000	     -9.92714083	      9.73279465	      6.07183159	      8.24110570	     89.95437384	      0.00000000	      0.00000000
      0.56000000	     -1.46369800	     12.05818189	     -5.97228565	     -0.23437720	      0.94314807	      0.98879244	     -1.60634257	    -27.44145560	    -15.51836075	    -45.51831600	     -0.79444448	    -12.85826205	      1.19545733	     -8.52115610	     18.19559466	    -10.31518016	     15.82587918	    -16.42552455	     -0.28667948	     -3.02663854	      9.81424798	      2.53012579	      1.89217452	    -14.75914785	      7.41528505	      5.06548194	    -12.18004650	    -12.11082351	     30.42830953	     89.95437384	      0.00000000	      0.00000000	     -8.59944100	      9.68404651	      5.83204242	      8.80095015	     89.95437384	      0.00000000	      0.00000000
      0.57000000	     -1.47622267	     12.16345985	     -5.71675975	     -0.22569627	      0.94437317	      0.98583442	     -0.07024439	    -27.70738477	    -14.58485085	    -47.85362770	     -0.83520336	    -12.37887731	     -0.64649619	     -8.39711646	     17.43913861	    -10.81821781	     15.33132999	    -16.10476474	     -0.28108117	     -2.46234329	      9.46414981	      2.51488441	      1.69218323	    -14.80247506	      6.75746833	      4.92713049	    -11.97177054	    -11.72493826	     29.39612980	     89.95437384	      0.00000000	      0.00000000	     -7.15837304	      9.65198707	      5.63894600	      9.26448452	     89.95437384	      0.00000000	      0.00000000
      0.58000000	     -1.93176192	     12.27104008	     -5.72700423	     -0.21781914	      0.94480484	      0.98339207	      2.47885646	    -27.84322162	    -13.24471429	    -50.40485782	     -0.87973073	    -12.09845913	     -3.86914442	     -7.93100267	     17.28288664	    -11.17278210	     15.05952433	    -15.81229009	     -0.27597652	     -2.22635357	      9.96301815	      2.84849532	      1.99676542	    -14.78368727	      6.43421037	      4.75458158	    -11.76328264	    -11.43957920	     28.46709281	     89.95437384	      0.00000000	      0.00000000	     -5.82569847	      9.61248991	      5.79808656	     10.08945048	     89.95437384	      0.00000000	      0.00000000
      0.59000000	     -1.89927411	     12.21839105	     -5.60484855	     -0.20954664	      0.94614493	      0.98079932	      4.07722143	    -27.85836193	    -12.48593811	    -52.40775584	     -0.91468789	    -11.09090474	     -5.63440182	     -7.77814033	     16.44171138	    -11.43644937	     14.77972397	    -15.41113758	     -0.26897509	     -1.72977040	      9.49474025	      2.81160027	      1.71028430	    -14.63025758	      5.80368169	      4.76037462	    -11.57992674	    -11.16094295	     27.29898842	     89.95437384	      0.00000000	      0.00000000	     -4.37182431	      9.56651754	      5.81751644	     10.70995790	     89.95437384	      0.00000000	      0.00000000
      0.60000000	     -2.10707428	     12.13590304	     -5.69187782	     -0.20169599	      0.94703004	      0.97873682	      6.21566593	    -27.65972633	    -11.37936057	    -54.32671830	     -0.94818011	    -10.31783243	     -8.21754952	     -7.36426407	     15.88898047	    -11.55876861	     14.75963196	    -14.94451982	     -0.26083108	     -1.41604571	      9.26543545	      2.85705992	      1.72662694	    -14.41129822	      5.41816086	      4.72540772	    -11.42556650	    -10.75033144	     26.16957563	     89.95437384	      0.00000000	      0.00000000	     -3.03538895	      9.53612317	      5.92441158	     11.53411380	     89.95437384	      0.00000000	      0.00000000
      0.61000000	     -2.65787334	     11.88436336	     -5.82255185	     -0.19446892	      0.94741342	      0.97688754	      8.98764918	    -27.08105449	    -10.10837375	    -56.35705005	     -0.98361608	     -8.32536004	    -11.12088353	      4.47110239	     15.90736186	    -11.35443095	     15.11129090	    -14.89597024	     -0.25998373	     -0.67091047	      8.91553868	      4.77391417	      2.05329861	    -13.95875452	      5.10226910	      4.69344157	    -11.24402919	    -10.71442091	     25.11660533	     89.95437384	      0.00000000	      0.00000000	     -1.62519084	      9.42173584	      6.66585720	     12.30226813	     89.95437384	      0.00000000	      0.00000000
      0.62000000	     -2.76097947	     11.66333453	     -5.92778816	     -0.18654831	      0.94853491	      0.97509619	     10.80313002	    -26.62825936	     -9.32720433	    -57.62042939	     -1.00566621	     -7.71679501	    -13.12686397	      4.73432984	     15.16039685	    -11.33815337	     15.08993451	    -14.35950927	     -0.25062072	     -0.41349588	      8.70286357	      4.63920807	      1.94830636	    -13.59445433	      4.72855943	      4.67638019	    -11.07569182	    -10.77572844	     23.95309487	     89.95437384	      0.00000000	      0.00000000	     -0.35770164	      9.45132400	      6.65671873	     13.39754076	     89.95437384	      0.00000000	      0.00000000
      0.63000000	     -2.76706157	     11.39020330	     -6.01489718	     -0.17873380	      0.94979364	      0.97332900	     12.40528586	    -26.06569348	     -8.62948748	    -58.60282532	     -1.02281225	     -6.72013281	    -14.46787742	      4.78638166	     14.27030422	    -11.29492560	     15.03956290	    -13.74346980	     -0.23986880	     -0.00371723	      8.34027002	      4.51017016	      1.70970631	    -13.17438247	      4.27586363	      4.65272875	    -10.98146213	    -10.61713607	     22.90718603	     89.95437384	      0.00000000	      0.00000000	      0.98414767	      9.50682597	      6.60798346	     14.38490717	     89.95437384	      0.00000000	      0.00000000
